<?xml version="1.0" encoding="UTF-8" standalone="no"?>
<svg
   height="48"
   width="48"
   version="1.1"
   id="svg4"
   sodipodi:docname="logo.svg"
   viewBox="0 0 48 48"
   inkscape:export-filename="..\..\..\WTF\dashboard\src\favicon.ico.png"
   inkscape:export-xdpi="96"
   inkscape:export-ydpi="96"
   inkscape:version="1.2.1 (9c6d41e410, 2022-07-14)"
   xmlns:inkscape="http://www.inkscape.org/namespaces/inkscape"
   xmlns:sodipodi="http://sodipodi.sourceforge.net/DTD/sodipodi-0.dtd"
   xmlns:xlink="http://www.w3.org/1999/xlink"
   xmlns="http://www.w3.org/2000/svg"
   xmlns:svg="http://www.w3.org/2000/svg">
  <defs
     id="defs8">
    <linearGradient
       inkscape:collect="always"
       id="linearGradient11954">
      <stop
         style="stop-color:#ff0000;stop-opacity:1;"
         offset="0"
         id="stop11950" />
      <stop
         style="stop-color:#ff7f00;stop-opacity:1;"
         offset="0.15991145"
         id="stop14992" />
      <stop
         style="stop-color:#ffff00;stop-opacity:1;"
         offset="0.333341"
         id="stop12810" />
      <stop
         style="stop-color:#00ff00;stop-opacity:1;"
         offset="0.49726889"
         id="stop12808" />
      <stop
         style="stop-color:#00ffff;stop-opacity:1;"
         offset="0.66395658"
         id="stop16446" />
      <stop
         style="stop-color:#0000ff;stop-opacity:1;"
         offset="0.82296562"
         id="stop12812" />
      <stop
         style="stop-color:#ff00ff;stop-opacity:1;"
         offset="1"
         id="stop11952" />
    </linearGradient>
    <linearGradient
       id="linearGradient10381"
       inkscape:swatch="gradient">
      <stop
         style="stop-color:#ffffff;stop-opacity:1;"
         offset="0"
         id="stop10377" />
      <stop
         style="stop-color:#4a4848;stop-opacity:0;"
         offset="1"
         id="stop10379" />
    </linearGradient>
    <linearGradient
       inkscape:collect="always"
       xlink:href="#linearGradient11954"
       id="linearGradient11956"
       x1="6.8865318"
       y1="23.162468"
       x2="41.113468"
       y2="23.162468"
       gradientUnits="userSpaceOnUse" />
  </defs>
  <sodipodi:namedview
     id="namedview6"
     pagecolor="#ffffff"
     bordercolor="#000000"
     borderopacity="0.25"
     inkscape:showpageshadow="2"
     inkscape:pageopacity="0.0"
     inkscape:pagecheckerboard="0"
     inkscape:deskcolor="#d1d1d1"
     showgrid="false"
     inkscape:zoom="30.258278"
     inkscape:cx="29.132524"
     inkscape:cy="36.865945"
     inkscape:window-width="2560"
     inkscape:window-height="1361"
     inkscape:window-x="-9"
     inkscape:window-y="-9"
     inkscape:window-maximized="1"
     inkscape:current-layer="svg4" />
  <path
     d="M 7,34.15 V 39 H 41 V 34.15 Z M 7,12 h 6.25 Q 13,11.55 12.85,10.875 12.7,10.2 12.7,9.65 12.7,7.3 14.35,5.65 16,4 18.3,4 q 1.55,0 2.85,0.775 1.3,0.775 2.05,1.975 l 0.85,1.3 0.8,-1.3 Q 25.65,5.5 26.9,4.75 28.15,4 29.6,4 32,4 33.65,5.625 35.3,7.25 35.3,9.65 q 0,0.55 -0.125,1.1 Q 35.05,11.3 34.8,12 H 41 q 1.2,0 2.1,0.9 0.9,0.9 0.9,2.1 v 24 q 0,1.2 -0.9,2.1 Q 42.2,42 41,42 H 7 Q 5.8,42 4.9,41.1 4,40.2 4,39 V 15 Q 4,13.8 4.9,12.9 5.8,12 7,12 Z M 7,28.8 H 41 V 15 H 28.55 l 5,6.95 -2.4,1.8 -7.15,-9.9 -7.15,9.9 -2.4,-1.8 5,-6.95 H 7 Z M 18.35,12.3 q 1.1,0 1.875,-0.775 Q 21,10.75 21,9.65 21,8.55 20.225,7.775 19.45,7 18.35,7 17.25,7 16.475,7.775 15.7,8.55 15.7,9.65 q 0,1.1 0.775,1.875 0.775,0.775 1.875,0.775 z m 11.25,0 q 1.15,0 1.925,-0.775 Q 32.3,10.75 32.3,9.65 32.3,8.55 31.525,7.775 30.75,7 29.6,7 28.55,7 27.775,7.775 27,8.55 27,9.65 q 0,1.1 0.775,1.875 Q 28.55,12.3 29.6,12.3 Z"
     id="path2" />
  <path
     style="fill:url(#linearGradient11956);fill-opacity:1;stroke-width:0.0467381"
     d="M 9.1086519,39.377168 C 8.1151913,39.230377 7.221392,38.429902 6.9617647,37.454444 c -0.1003106,-0.376882 -0.1003106,-21.390818 0,-21.7677 0.1078684,-0.405277 0.2974804,-0.741323 0.6035713,-1.069698 0.3453563,-0.370498 0.7339744,-0.631252 1.1479432,-0.770244 0.3013347,-0.101175 0.3620597,-0.10343 3.1972408,-0.118772 2.694786,-0.01458 2.88778,-0.02099 2.856154,-0.09481 -0.298144,-0.695943 -0.416322,-1.278171 -0.409767,-2.018805 0.0057,-0.645335 0.07675,-1.044113 0.290207,-1.6289898 0.504332,-1.3819005 1.802156,-2.5592979 3.263673,-2.960831 0.304249,-0.083588 0.497683,-0.100487 1.181715,-0.1032352 0.929132,-0.00373 1.283222,0.066076 1.990256,0.3923795 0.983644,0.4539618 1.648378,1.0716916 2.426492,2.2549133 0.282766,0.4299803 0.524635,0.7816992 0.537488,0.7815972 0.01285,-1.03e-4 0.127071,-0.173156 0.253818,-0.3845631 0.873775,-1.4574089 1.542418,-2.1412206 2.573835,-2.6322237 0.736549,-0.3506319 1.047164,-0.4163558 1.962999,-0.4153574 0.936309,0.00102 1.355771,0.086705 2.072905,0.4234364 2.006951,0.942367 3.096227,3.1046968 2.647106,5.2547878 -0.03495,0.167317 -0.117213,0.472283 -0.182808,0.677702 -0.06559,0.205419 -0.11953,0.388084 -0.119858,0.40592 -3.27e-4,0.01784 1.287621,0.03948 2.86211,0.0481 2.806696,0.01536 2.868717,0.01768 3.169876,0.118779 0.821371,0.275722 1.534603,1.024954 1.751514,1.839921 0.100311,0.376882 0.100311,21.390818 0,21.7677 -0.107868,0.405277 -0.29748,0.741323 -0.603571,1.069697 -0.344306,0.369372 -0.732477,0.630279 -1.147943,0.771583 l -0.307169,0.104471 -14.815969,0.0061 C 16.0148,39.409713 9.2400813,39.396588 9.1086519,39.377168 Z M 38.582278,34.796495 V 32.693281 H 24 9.4177215 v 2.103214 2.103213 H 24 38.582278 Z m 0,-12.61928 V 16.24148 h -5.351509 c -2.94333,0 -5.351111,0.01577 -5.350624,0.03505 4.86e-4,0.01928 0.959706,1.367285 2.131598,2.995568 1.171892,1.628284 2.112681,2.976695 2.090643,2.996471 -0.02204,0.01977 -0.467346,0.355773 -0.989573,0.746661 -0.675227,0.50541 -0.965497,0.69725 -1.004869,0.664121 -0.03045,-0.02562 -1.411936,-1.929265 -3.069969,-4.230318 C 25.379942,17.147985 24.012853,15.265305 24,15.265305 c -0.01285,0 -1.379942,1.88268 -3.037975,4.183732 -1.658033,2.301053 -3.039519,4.204697 -3.069969,4.230318 -0.03937,0.03313 -0.329642,-0.158711 -1.004869,-0.664121 -0.522227,-0.390888 -0.96757,-0.726921 -0.989651,-0.746738 -0.02208,-0.01982 0.918799,-1.36823 2.090843,-2.996471 1.172044,-1.628241 2.131298,-2.976212 2.131675,-2.995491 3.77e-4,-0.01928 -2.407493,-0.03505 -5.350823,-0.03505 H 9.4177215 v 5.935735 5.935735 H 24 38.582278 Z M 19.611724,13.950347 c 0.79889,-0.151507 1.537804,-0.830088 1.747517,-1.604831 0.06045,-0.223306 0.07654,-0.424541 0.06307,-0.788468 -0.01683,-0.454672 -0.03057,-0.513902 -0.197717,-0.852092 -0.407572,-0.8246653 -1.158706,-1.2872345 -2.090253,-1.2872345 -1.394155,0 -2.464567,1.2558705 -2.24405,2.6328535 0.132044,0.82453 0.712418,1.531199 1.477768,1.799345 0.43866,0.153687 0.806287,0.183373 1.243662,0.100427 z m 9.758804,-0.02426 c 1.621503,-0.382215 2.313576,-2.358 1.276757,-3.644987 -0.443166,-0.5500952 -0.969115,-0.8136549 -1.699913,-0.8518473 -0.370751,-0.019376 -0.507796,-0.00623 -0.771179,0.073987 -0.615543,0.1874678 -1.111169,0.6157093 -1.408229,1.2167693 -0.158774,0.321257 -0.173599,0.386473 -0.190278,0.83704 -0.02205,0.595736 0.06497,0.966489 0.31822,1.355693 0.55948,0.859846 1.497049,1.243776 2.474622,1.013345 z"
     id="path10375"
     transform="matrix(1.1666667,0,0,1.1666667,-4,-4)" />
</svg>
