<svg xmlns="http://www.w3.org/2000/svg" viewBox="0 0 800.17 232.4">
    <defs>
        <style> .cls-1{fill:#be1633;} .cls-1,.cls-2{fill-rule:evenodd;} .cls-2{fill:#58585a;} </style>
    </defs>
    <path class="cls-1" d="M477.3,235.93a55.49,55.49,0,0,1-55.56-55.42c0-30.61,23.94-55.42,54.62-55.42A106.34,106.34,0,0,1,493,126.91v28.24s-4.92-2-15.43-2c-20.06,0-28.61,12.25-28.61,28.54s9.71,29,28,29c19.43,0,31.13-13.55,31.13-37.65,0-8.47,0-93.87,0-102.86h24.78V180.51c0,31.48-19.16,55.42-55.56,55.42Zm-99.51-71.24c0-8.54-8.61-12.64-16.93-12.64-8.82,0-16.89,4.28-16.89,12.51v71.55H318.5c0-14-.94-35.11-.94-67.78,0-30.54,19.53-41.89,43.1-41.89,22.83,0,42.79,10.73,42.79,40.48,0,21.12.57,59.78.57,69.64H377.79V164.69ZM243.91,237.06a55.42,55.42,0,1,1,55.53-55.42,55.47,55.47,0,0,1-55.53,55.42Zm.06-86.62a31.06,31.06,0,1,0,31.12,31.06A31.09,31.09,0,0,0,244,150.44Zm-86.76-.94c-21.65-2.16-33.92,13.21-35.85,28.24-1.87,14.59,10.75,31.89,27.21,33.61,6.88.72,17.06-.21,22.9-2.92l7.88,21a56.09,56.09,0,0,1-32.54,6.47,55.47,55.47,0,0,1-49.37-61c3.25-30.43,30-51.81,60.56-49.2,9.79.84,17.24,3.39,24.22,9.14l-10.86,19.35c-2.67-1.69-6.5-3.94-14.15-4.71ZM51.56,147.62c-8.68,0-13.2,2.8-13.2,10.36,0,3.11,1.81,7.45,19.8,16,21.57,10.25,28.09,23,28.3,32s-.65,32-35.84,32C18.5,238,11,209.75,11,209.75l22.64-6.59c1.08,5.79,9.71,13.18,16,13.18,10.62,0,13.21-3,13.21-9.41,0-4.09-8.58-9.92-23.58-17.89-19.6-10.41-25.47-20.91-25.47-33.89S24.14,125,51.56,125s36.79,28.24,36.79,28.24l-21.7,6.59c-1.23-3.88-6.8-12.24-15.09-12.24Z" transform="translate(-11 -5.6)"></path>
    <path class="cls-2" d="M808,22.9c-5.31,0-14.94.14-14.94.14s-15.71,82.21-18.88,89.17c-2.24,4.91-6.2,6.69-12,6.69l-187.75-7c-9.55,0-13.14-9.08-12.55-16.76,1-13,2.86-31.76,4.22-46.3.47-5,3.19-12.71,14.84-13.17,14.72-.57,183.76-10,183.76-10l-3.12,14.81L583.38,52.6s-.18,2.38-.46,6L758,56l-2,7L582.08,69.65c-.19,2.43-.36,4.72-.48,6.42L753,78l-2,7L580.64,88.67l-.43,5.75c44.47,1.41,172.06,5,172.06,5,3.49,0,5.73-1.13,6.65-4.68,1.23-4.77,17.75-78.27,18.36-83.26.5-4,3.11-5.88,7.53-5.88h26.36L808,22.9ZM608.94,126.22a55.42,55.42,0,1,1-55.56,55.42,55.49,55.49,0,0,1,55.56-55.42Zm.11,86.34a31.06,31.06,0,1,0-31.14-31.06,31.1,31.1,0,0,0,31.14,31.06Zm125.36-86.34a55.42,55.42,0,1,1-55.57,55.42,55.49,55.49,0,0,1,55.57-55.42Zm.07,86.34a31.06,31.06,0,1,0-31.1-31.06,31.08,31.08,0,0,0,31.1,31.06Z" transform="translate(-11 -5.6)"></path>
</svg>