<svg xmlns="http://www.w3.org/2000/svg" viewBox="0 0 1829.1 299.1">
    <style type="text/css"> .st0{fill:#00AFCB;} .st1{fill:#706F6F;} </style>
    <path class="st0" d="M920.4,63.4c-0.1,0-0.3,0-0.4,0c-0.9,0-1.8-0.1-2.7-0.1c0,0,0,0,0,0s0,0,0,0c-0.9,0-1.8,0-2.7,0.1 c-0.1,0-0.3,0-0.4,0c-44.2,1.7-76.8,38.1-76.8,82.7c0,3.3,0,5.8,0.1,7.6v68.7c0,2.9,2.3,5.2,5.2,5.2h29.2c2.9,0,5.2-2.3,5.2-5.2 v-71.2c0-0.2,0-0.4,0-0.6c0-1.6,0-3,0-4.5c0-15.4,5.3-28.9,17.4-36.6c0,0,0,0,0,0c5.7-3.6,12.3-5.9,19.3-6.5c0.3,0,0.6-0.1,1-0.1 c0.3,0,0.5,0,0.8,0c0.6,0,1.2,0,1.7,0c0,0,0.1,0,0.1,0c0,0,0.1,0,0.1,0c0.6,0,1.2,0,1.7,0c0.3,0,0.5,0,0.8,0c0.3,0,0.6,0,1,0.1 c6.9,0.6,13.5,2.9,19.3,6.5c0,0,0,0,0,0c12.2,7.6,17.4,21.2,17.4,36.6c0,1.5,0,3,0,4.5c0,0.2,0,0.4,0,0.6v71.2 c0,2.9,2.3,5.2,5.2,5.2h29.2c2.9,0,5.2-2.3,5.2-5.2v-68.7c0-1.9,0.1-4.3,0.1-7.6C997.2,101.6,964.6,65.1,920.4,63.4z"></path>
    <path class="st0" d="M233.2,228.7c-45.6,0-81.3-37.1-81.3-82.7s35.7-82.7,81.3-82.7s81.3,37.1,81.3,82.7S278.8,228.7,233.2,228.7z M233.2,102.8c-23.8,0-41.7,19.4-41.7,43.2s17.9,43.2,41.7,43.2s41.7-19.4,41.7-43.2S257,102.8,233.2,102.8z"></path>
    <path class="st0" d="M492.1,150.3c0,0.2-0.1,0.5-0.1,0.7v120.5c0,2.9,2.3,5.2,5.2,5.2h29.2c2.9,0,5.2-2.3,5.2-5.2v-55.1 c12.6,7.7,27.4,12.2,43.2,12.2c4.6,0,9.3-0.4,13.8-1.2c24.1-4.1,43.7-18.5,56.1-39.7c7.4-12.7,11.4-27.2,11.4-41.9 c0-45.6-35.7-82.7-81.3-82.7S492,100.2,492,145.9C492,147.3,492,148.8,492.1,150.3z M574.7,102.7c23.8,0,41.7,19.4,41.7,43.2 c0,7.7-2,15.2-5.9,21.8c-6.5,11.1-16,18.6-28.6,20.7c-2.4,0.4-4.8,0.6-7.2,0.6c-23.8,0-43.2-19.4-43.2-43.2S550.9,102.7,574.7,102.7 z"></path>
    <path class="st1" d="M1095.6,163.7c0,0.2-0.1,0.5-0.1,0.8v106.8c0,2.9,2.4,5.3,5.3,5.3h30c2.9,0,5.3-2.4,5.3-5.3v-39.6 c12.9,7.9,28.1,12.5,44.3,12.5c4.8,0,9.5-0.4,14.2-1.2c24.8-4.2,46.3-19,59.1-40.8c7.6-13,11.7-27.9,11.7-43c0-46.9-38.1-85-85-85 c-46.9,0-85,38.1-85,85C1095.5,160.7,1095.5,162.2,1095.6,163.7z M1180.4,114.8c24.4,0,44.3,19.9,44.3,44.3c0,7.9-2.1,15.7-6.1,22.4 c-6.7,11.4-17.9,19.1-30.8,21.3c-2.4,0.4-4.9,0.6-7.4,0.6c-24.4,0-44.3-19.9-44.3-44.3S1156,114.8,1180.4,114.8z"></path>
    <path class="st0" d="M139.8,173.5c-7.9,10.4-20.4,15.8-34.4,15.8c-23.8,0-43.2-19.4-43.2-43.2s19.4-43.2,43.2-43.2 c14.1,0,26.6,5.3,34.4,15.8c3.9-13.7,10.7-24.7,19.7-35.1C145,71,126,63.3,105.3,63.3c-45.6,0-82.7,37.1-82.7,82.7 s37.1,82.7,82.7,82.7c20.7,0,39.7-7.6,54.2-20.3C150.5,198.1,143.6,187.1,139.8,173.5z"></path>
    <path class="st1" d="M1511,164.4c0-0.3,0-0.5-0.1-0.8c0.1-1.5,0.1-3,0.1-4.5c0-46.9-38.1-85-85-85c-46.9,0-85,38.1-85,85 s38.1,85,85,85c16.2,0,31.4-4.6,44.3-12.5v6c0,2.9,2.4,5.3,5.3,5.3h30c2.9,0,5.3-2.4,5.3-5.3V164.4z M1426.1,203.4 c-24.4,0-44.3-19.9-44.3-44.3s19.9-44.3,44.3-44.3c24.4,0,44.3,19.9,44.3,44.3S1450.5,203.4,1426.1,203.4z"></path>
    <path class="st0" d="M747.5,228.7c-45.6,0-81.3-37.1-81.3-82.7s35.7-82.7,81.3-82.7s81.3,37.1,81.3,82.7S793.1,228.7,747.5,228.7z M747.5,102.8c-23.8,0-41.7,19.4-41.7,43.2s17.9,43.2,41.7,43.2c23.8,0,41.7-19.4,41.7-43.2S771.3,102.8,747.5,102.8z"></path>
    <path class="st0" d="M399.2,227.5c0.1,0,0.3,0,0.4,0c0.9,0,1.8,0.1,2.7,0.1c0,0,0,0,0,0s0,0,0,0c0.9,0,1.8,0,2.7-0.1 c0.1,0,0.3,0,0.4,0c44.2-1.7,75.3-38.1,75.3-82.7c0-3.3,0-5.8-0.1-7.6V73.4c0-2.9-2.3-5.2-5.2-5.2h-29.2c-2.9,0-5.2,2.3-5.2,5.2 v66.3c0,0.2,0,0.4,0,0.6c0,1.6,0,3,0,4.5c0,15.4-5.3,28.9-17.4,36.6c0,0,0,0,0,0c-5.7,3.6-10.9,5.9-17.8,6.5c-0.3,0-0.6,0.1-1,0.1 c-0.3,0-0.5,0-0.8,0c-0.6,0-1.2,0-1.7,0c0,0-0.1,0-0.1,0c0,0-0.1,0-0.1,0c-0.6,0-1.2,0-1.7,0c-0.3,0-0.5,0-0.8,0c-0.3,0-0.6,0-1-0.1 c-6.9-0.6-12.1-2.9-17.8-6.5c0,0,0,0,0,0c-12.2-7.6-17.4-21.2-17.4-36.6c0-1.5,0-3,0-4.5c0-0.2,0-0.4,0-0.6V73.4 c0-2.9-2.3-5.2-5.2-5.2h-29.2c-2.9,0-5.2,2.3-5.2,5.2v63.9c0,1.9-0.1,4.3-0.1,7.6C323.9,189.4,355.1,225.9,399.2,227.5z"></path>
    <path class="st1" d="M1317,12.6h-29.1c-2.9,0-5.3,2.4-5.3,5.3V30v207.6c0,2.9,2.4,5.3,5.3,5.3h29.1c2.9,0,5.3-2.4,5.3-5.3V30V17.9 C1322.3,14.9,1319.9,12.6,1317,12.6z"></path>
    <path class="st1" d="M1062.5,292.2V244c0-3.8-3.1-6.9-6.9-6.9h0h-18.7h0c-3.8,0-6.9,3.1-6.9,6.9v48.3c0,3.8,3.1,6.9,6.9,6.9h0h18.7 h0C1059.4,299.1,1062.5,296,1062.5,292.2z"></path>
    <path class="st1" d="M1062.5,213.4v-48.4c0-3.8-3.1-6.9-6.9-6.9h0h-18.7h0c-3.8,0-6.9,3.1-6.9,6.9v48.4c0,3.8,3.1,6.9,6.9,6.9h0 h18.7h0C1059.4,220.3,1062.5,217.2,1062.5,213.4z"></path>
    <path class="st1" d="M1055.6,141.3c3.8,0,6.9-3.1,6.9-6.9V85.9c0-3.8-3.1-6.9-6.9-6.9h0h-18.7h0c-3.8,0-6.9,3.1-6.9,6.9v48.4 c0,3.8,3.1,6.9,6.9,6.9"></path>
    <path class="st1" d="M1062.5,55.3V6.9c0-3.8-3.1-6.9-6.9-6.9h0h-18.7h0c-3.8,0-6.9,3.1-6.9,6.9v48.4c0,3.8,3.1,6.9,6.9,6.9h0h18.7h0 C1059.4,62.2,1062.5,59.1,1062.5,55.3z"></path>
    <path class="st1" d="M1619.4,79.4h-36.6V68.2V41V18.4c0-2.9-2.4-5.3-5.3-5.3h-29.3c-2.9,0-5.3,2.4-5.3,5.3V41v27.2v11.2h-31.2h-23 c13.7,10.5,24.6,24.5,31.4,40.6h22.7v117.6c0,2.9,2.4,5.3,5.3,5.3h29.3c2.9,0,5.3-2.4,5.3-5.3V120h36.6c2.3,0,4.2-2.4,4.2-5.3v-30 C1623.7,81.8,1621.8,79.4,1619.4,79.4z"></path>
    <path d="M926.9,356c0,0,0.1,0,0.1,0L926.9,356L926.9,356z"></path>
    <path class="st1" d="M1782.2,202.5h-75.1l0.4,0c-1.7,0-3.1-1.4-3.1-3.1c0-1,0.1-1.8,0.8-2.4h0l77.5-73c4.5-4.7,7.3-11.1,7.3-18.2 c0-14.6-11.8-26.3-26.3-26.4l1.4,0h-119c-4.3,0-6.7,2.4-6.7,5.3v30c0,2.9,2.4,5.3,5.3,5.3l73.2,0c1.7,0,3.1,1.4,3.1,3.1 c0,0.9-0.4,1.7-1,2.3h0l-75.7,72.1c-5.1,4.8-8.3,11.5-8.3,19.1v0c0,14.6,11.8,26.5,26.4,26.5h3.9h114.7c4.3,0,6.7-2.4,6.7-5.3v-30 C1787.5,204.9,1785.1,202.5,1782.2,202.5z"></path>
</svg>