<svg xmlns="http://www.w3.org/2000/svg" viewBox="0 0 208 139">
    <title>Startseite</title>
    <g fill="#FFFFFE" fill-rule="evenodd">
        <path d="M98.8 48.2c0-.1 0-.3.3-.3h.3c.2 0 .3.1.3.2l4.2 9 4.3-9s.1-.2.3-.2h.3c.2 0 .3.2.3.3l2.3 12.9c0 .3-.1.4-.4.4h-1.7c-.2 0-.3-.1-.4-.3l-1-7.2h-.1l-3.4 7.5c0 .1-.1.2-.3.2h-.3c-.2 0-.3 0-.4-.2l-3.3-7.5-1.2 7.2a.4.4 0 0 1-.3.3h-1.8c-.2 0-.4-.1-.3-.4l2.3-12.9M113.4 61l6-12.8c0-.2 0-.3.2-.3h.2c.2 0 .3.1.4.3L126 61c.1.3 0 .5-.3.5H124c-.2 0-.4 0-.5-.4l-1-2H117l-1 2a.6.6 0 0 1-.5.4h-1.7c-.3 0-.4-.2-.3-.5m8.2-4l-1.9-4.3-2 4.3h4m6.4-8.5c0-.2.2-.4.4-.4h5.4c2.3 0 4.2 1.9 4.2 4.2 0 1.7-1.2 3.1-2.8 3.8l2.6 4.9c.1.2 0 .5-.3.5h-2a.3.3 0 0 1-.3-.1l-2.6-5.1h-2v4.9c0 .2-.3.3-.5.3h-1.7a.4.4 0 0 1-.4-.3V48.5zm5.6 5.7a2 2 0 0 0 2-2c0-1-1-1.8-2-1.8h-3v3.8h3zm7.1-5.6c0-.3.2-.5.5-.5h1.6c.3 0 .5.2.5.5v5.2l4.8-5.5a.5.5 0 0 1 .4-.2h1.9c.3 0 .5.4.3.7l-5 5.6 5.3 6.5a.4.4 0 0 1-.3.6h-2l-.4-.1-5-6.2v5.9a.5.5 0 0 1-.5.4h-1.6a.5.5 0 0 1-.5-.4V48.6m15 1.8H153a.4.4 0 0 1-.3-.3v-1.6c0-.2.1-.4.3-.4h8.3c.2 0 .4.2.4.4v1.6c0 .2-.1.3-.4.3h-2.9v10.8a.4.4 0 0 1-.3.3h-1.8a.4.4 0 0 1-.4-.3V50.4m-45.6 14.9c3.8 0 7.5 1.5 10.5 4 .3.3.3.9 0 1.2l-2.7 2.8c-.3.4-.7.4-1 0a9.7 9.7 0 0 0-6.6-2.5 9.9 9.9 0 0 0-9.6 10c0 5.3 4.3 9.9 9.7 9.9 2.4 0 4.2-.8 5-1.1v-5.1h-3.3c-.5 0-.9-.4-.9-.8v-3.4c0-.5.4-.8.9-.8h8.2c.4 0 .8.4.8.8v12.5a.8.8 0 0 1-.4.7s-4.4 2.8-10.6 2.8c-8.6 0-15.4-6.8-15.4-15.5 0-8.6 6.8-15.5 15.4-15.5m16.5 1.3c0-.4.4-.8.9-.8h4c.5 0 .8.4.8.8v17.6c0 3.6 2.5 6.5 6.3 6.5 3.7 0 6.2-2.9 6.2-6.5V66.6c0-.4.4-.8.9-.8h4c.5 0 .8.4.8.8v17.9c0 6.5-5.1 11.8-12 11.8-6.7 0-11.9-5.3-11.9-11.8V66.6m29.6 0c0-.5.3-.9.8-.9h12.2c5.2 0 9.4 4.2 9.4 9.3 0 4-2.6 7.2-6.3 8.7l5.8 11c.3.5 0 1.2-.7 1.2H173a.7.7 0 0 1-.7-.4l-5.7-11.4h-4.8v11c0 .4-.3.8-.8.8h-4a.8.8 0 0 1-.7-.8V66.5zm12.6 12.9c2.3 0 4.2-2 4.2-4.4 0-2.3-2-4.2-4.2-4.2h-7v8.6h7zm14.9-12.9c0-.4.3-.8.8-.8h4c.5 0 .9.4.9.8v17.6c0 3.6 2.5 6.5 6.2 6.5s6.3-2.9 6.3-6.5V66.6c0-.4.3-.8.8-.8h4c.5 0 .9.4.9.8v17.9c0 6.5-5.2 11.8-12 11.8-6.7 0-12-5.3-12-11.8V66.6M32 64.8h-.4-.3c-3.2.2-5 3-4.9 5.2a.2.2 0 0 0 .2.2h1.8a.2.2 0 0 0 .2-.2c.4-1.9 1.4-3 3-3h.1c1.6 0 2.6 1.1 3 3 0 0 0 .2.2.2h1.8a.2.2 0 0 0 .2-.2c0-2.1-1.7-5-5-5.2m18.5 0H50h-.2c-3.2.2-5 3-4.9 5.2a.2.2 0 0 0 .2.2h1.8a.2.2 0 0 0 .2-.2c.3-1.9 1.4-3 3-3s2.7 1.1 3 3c0 0 .1.2.3.2H55a.2.2 0 0 0 .2-.2c0-2.1-1.6-5-4.9-5.2"></path>
        <path d="M19.3 37.3zM67 9.9a40 40 0 0 0-55 2.4 41 41 0 0 0-11.8 28 41 41 0 0 0 3 17.3h.1c0 .1 0 .2.2.2l.1-.1a.3.3 0 0 0 0-.1c1.7-4.7 4-8.8 7.1-12.5a40.2 40.2 0 0 1 8.4-7.7c.1 0 .2 0 .3.2a.3.3 0 0 1 0 .3v.1a40.7 40.7 0 0 0-5.3 6.1C10 50.1 7.6 56.7 6.8 64c0 .3 0 .6.2.8A41.1 41.1 0 0 0 19.5 77h.2a.3.3 0 0 0 .2-.3 9.2 9.2 0 0 1-1-7.3 10 10 0 0 1 2.7-4.7c3.8-3.8 7.5-7.8 11-12A205.3 205.3 0 0 0 55 19.8l-.1.2a.4.4 0 0 1 .5-.2l.2.3C52.6 29 48.5 37.5 44 45.7a.5.5 0 0 0-.1.3l.1.3 5.6 6.8c3.4 4.2 7 8.2 10.9 12 3 3 3.6 8 1.3 11.6a.3.3 0 0 0 0 .1c0 .2.1.3.3.3a.2.2 0 0 0 .1 0 41.5 41.5 0 0 0 10.9-10c.1-.2.2-.4.1-.7-1.4-7.5-4.8-14-10.2-19.3l-.2-.1a.3.3 0 0 1 0-.4.3.3 0 0 1 .3-.1A36 36 0 0 1 75.9 62l.2.1h.2V62A42 42 0 0 0 67 9.9zM57 121.8c-1.9 0-3.5 1.3-3.8 3.2-.2 1 .2 1.8.8 2.2v-.1h.2v-.1c-.1-1.1.6-2 1.7-2 1.2 0 2.2.6 2.8 1.8.9 1.7.1 4-1.6 5-1.4.9-2.8.7-4.2.3a7 7 0 0 1-4.6-9c.5-1.7 1.4-3.3 2.3-4.8 1.7-3 3.4-6 4.8-9.2 1.2-3 2.1-7.7 2.8-12-1.7-.8-3.2-1.8-4.5-2.9l-.5-.4c-1-.8-2-1.6-3-2.1-1-.6-2-.9-3-.9a5 5 0 0 0-2.6.8 7 7 0 0 1-3.6 1h-.2a7 7 0 0 1-3.7-1 5 5 0 0 0-2.6-.8c-.9 0-2 .3-3 .9-1 .5-2 1.3-3 2 0 .2-.3.4-.4.5a20 20 0 0 1-4.9 3v.3a67 67 0 0 0 20.5 37 20 20 0 0 0 7.4 3.7l3.1.5h1.7c1.9-.2 3.5-1 5-2.2a9 9 0 0 0 3.2-8.2 7.3 7.3 0 0 0-7-6.5"></path>
        <path d="M66 79.4c-2 0-3.6 1.6-3.7 3.7a1.8 1.8 0 0 0 .8 1.6l.2.1.1-.2c-.2-1.2.6-2 1.7-2l.7.1c2 .6 3 2.8 2 5a4 4 0 0 1-3.7 2.3 5 5 0 0 1-2-.4 9.6 9.6 0 0 1-3.6-3l-4-5.4c-1.1-1.4-2.1-2.7-3.6-3.6A8 8 0 0 0 41 79l-.3.4-.4-.4a8 8 0 0 0-9.8-1.3c-1.4 1-2.5 2.2-3.5 3.6l-4 5.4a9.7 9.7 0 0 1-3.6 3 5 5 0 0 1-2 .4 4 4 0 0 1-3.8-2.4c-1-2 0-4.3 2-4.9l.7-.1c1.1 0 2 .8 1.7 2l.2.2a.1.1 0 0 0 .1 0c.6-.5.9-1 .9-1.7-.1-2.1-1.8-3.7-3.8-3.7-3.8 0-7 3.1-7.3 7a9.1 9.1 0 0 0 4.3 8.4c1.6 1.1 3.3 1.5 5 1.5 1 0 2.2-.1 3.3-.4a15 15 0 0 0 5.9-3.2c1.2-1 2.4-2 3.7-2.7.8-.5 1.7-.8 2.5-1H33.5c3.5-.7 7.3-2.5 7.3-2.5s4 2 8 2.5h-.1c.8.2 1.6.6 2.5 1 1.3.8 2.5 1.8 3.7 2.7a15 15 0 0 0 5.8 3.2c1.1.3 2.2.4 3.3.4 1.8 0 3.5-.4 5-1.5 3-2 4.5-4.8 4.3-8.5a7.4 7.4 0 0 0-7.2-6.9"></path>
    </g>
</svg>