<svg width="165" height="32" viewBox="0 0 165 32" xmlns="http://www.w3.org/2000/svg"><g fill="none" fill-rule="evenodd"><path d="M164.788 24.982c0 3.593-3.053 6.513-6.812 6.513-3.758 0-6.812-2.92-6.812-6.513s3.054-6.512 6.812-6.512c3.817.056 6.812 2.92 6.812 6.512z" fill="#FFD207" fill-rule="nonzero"/><path d="M14.095 15.158h2.525c2.877 0 4.64-1.684 4.933-3.818.294-1.852-1.057-3.817-3.759-3.817h-2.407l-1.292 7.635zm127.79-4.38L147.64.45h13.214l-19.967 30.204h-13.449l6.401-8.646-7.34-20.94-4.992 29.586h-10.571l-6.52-13.98-2.348 13.98H91.497L96.607.449h10.864l6.284 13.53 2.29-13.53h23.138l2.702 10.33zM92.378.45l-5.11 30.204h-10.57l-6.519-13.98-2.35 13.98H57.26L62.369.449h10.864l6.284 13.53 2.29-13.53h10.57zM20.848 0c7.341 0 12.274 3.761 12.333 9.88L34.766.45h23.961l-1.292 7.634H44.75l-.646 3.593h11.452l-1.292 7.58H42.812l-.646 3.76h12.861l-1.292 7.636H29.657l2.76-16.337c-1.879 5.277-6.93 8.42-13.507 8.42h-6.049l-1.35 7.917H0L5.168 0h15.68z" fill="#FFF"/></g></svg>