<svg xmlns="http://www.w3.org/2000/svg" viewBox="0 0 2658.43 777.86">
    <defs>
        <style>.cls-1{isolation:isolate;}.cls-2{fill:#019d9a;}.cls-2,.cls-3,.cls-4,.cls-5{mix-blend-mode:multiply;}.cls-3{fill:#ea6230;}.cls-4{fill:#a33289;}.cls-5{fill:#ffe90a;}.cls-6{fill:#fff;}.cls-7{fill:#252525;}</style>
    </defs>
    <title>smhaggle-logo_4c_transparent</title>
    <g class="cls-1">
        <g id="Ebene_1" data-name="Ebene 1">
            <circle class="cls-2" cx="224.43" cy="388.5" r="224.43" />
            <circle class="cls-3" cx="553.43" cy="389.36" r="224.43" />
            <circle class="cls-4" cx="388.5" cy="553.43" r="224.43" />
            <circle class="cls-5" cx="389.36" cy="224.43" r="224.43" />
            <path class="cls-6" d="M334.24,584.54V443.62H193.33V334.24H334.24V193.33H443.62V334.24H584.54V443.62H443.62V584.54Z" />
            <path class="cls-7" d="M2658.43,333.13a50.61,50.61,0,0,0-8.5-28.32q-8.5-13-25.29-20.64t-40.26-7.69q-40.47,0-66.57,21a122,122,0,0,0-38,52.4,177.79,177.79,0,0,0-11.93,63.73,120.54,120.54,0,0,0,3.42,29.61c-15.3,8-35.94,14.9-35.94,14.9a33.27,33.27,0,0,1-12.54,2.83q-9.32,0-9.31-10.52l.4-4.86,35.61-254.51-51.38,5.67L2363.31,444a82.24,82.24,0,0,0-.81,12.32c-.68.43-2,1.3-4.39,3-20.94,12.67-42.21,8.91-44.8,8.6s-7.48-3.78-9.5-6.48-3-6.6-3-11.73c0-.87.17-3,.53-6.34L2323,297.12q-39.66-20.64-82.54-20.64-41.26,0-68.38,20.84a121.61,121.61,0,0,0-39.65,52.4,174.69,174.69,0,0,0-12.55,65.14q0,24.74,7.88,42.72c-.66.44-1.45,1-2.47,1.69-20.94,12.67-42.21,8.91-44.8,8.6s-7.48-3.78-9.5-6.48-3-6.6-3-11.73c0-1.07.26-4.05.81-8.9l.53-4.42,20.66-139.22q-39.66-20.64-82.55-20.64-41.27,0-68.38,20.84a121.61,121.61,0,0,0-39.65,52.4,174.68,174.68,0,0,0-12.54,65.14q0,25,8.06,43.15l-1.84,1.26c-20.94,12.67-45.75,8.56-48.55,7a18.34,18.34,0,0,1-6-4.91c-2-2.65-3-6.6-3-11.73,0-1.07.27-4.05.82-8.9l21.84-143.64q-40-20.64-82.95-20.64-40.86,0-67.56,21.85a127.12,127.12,0,0,0-39,54.62,185.92,185.92,0,0,0-12.35,66q0,23.07,6.38,40.35h0c-21,12.67-42.22,8.91-44.8,8.6s-7.49-3.78-9.51-6.48-3-6.6-3-11.73c0-1.07.27-4.05.82-8.9l.89-7.48,12.87-90.85a83.72,83.72,0,0,0,1.22-13.75q0-24.68-13.36-38.44t-37.22-13.76q-19.83,0-38.44,11.93a100.39,100.39,0,0,0-31.16,32.17L1519,191.91l-51.38,5.26-37.18,264.51c-20.83,12.41-41.87,8.7-44.44,8.39s-7.49-3.77-9.51-6.47-3-6.61-3-11.74q0-1.61.82-8.9l.83-8.56-.07.05,12.88-91.8q.8-9.72.8-13.76,0-24.27-12.94-38.24t-35.2-14q-18.63,0-36,10.93t-31.16,30.75q-2.84-19.81-15.78-30.75t-31.56-10.93q-19.42,0-36.62,11.54t-31.36,32.16l2-37.62H1116l-25.62,185c-14.64,5.84-25.2,2-25.2,2-2.59-.32-7.48-3.78-9.5-6.48s-3.36-9.91-3-14.58,1.52-6.86,1.47-17.26c-.1-17-4.73-30.61-14.17-40.87s-24-18.34-43.7-24.27q-24.68-7.68-33.37-13.36t-8.71-15.37a18.74,18.74,0,0,1,9.31-16.8q9.3-5.85,26.7-5.86a76.83,76.83,0,0,1,26.31,4.85,72.87,72.87,0,0,1,23.46,13.76l23.88-29.94a101.7,101.7,0,0,0-33.18-19.83,114.45,114.45,0,0,0-40.47-7.28q-27.92,0-47.74,9.1t-29.74,24.08a56.87,56.87,0,0,0-9.91,32q0,21.84,13.75,36.61t42.08,24.08q18.21,6.48,27.11,10.72t12.75,9.51q3.84,5.26,3.85,13.76,0,10.92-9.92,19.22t-30.55,8.29a80.48,80.48,0,0,1-31.77-6.27,75.62,75.62,0,0,1-25.28-17.2l-27.92,29.14q14.16,14.56,35.81,23.87T961,502.67q27.93,0,49-8.91a90,90,0,0,0,9.29-4.55c7.18,6.39,17.27,11.1,31.33,12.65,19,2.08,35.44-5.05,35.44-5.05h51l17-123q12.15-24.66,24.89-39.65t25.29-15q8.49,0,13.35,4.66t4.86,16.38a67.66,67.66,0,0,1-1.22,11.33l-21,145.26h51L1269,372.59q12.13-24.27,24.88-38.84t25.29-14.57q8.49,0,13.15,4.66t4.65,16.38a66.22,66.22,0,0,1-.8,11.33l-11.77,85.07c-2.68,19.48-1.79,62.18,47.08,67.44a112.72,112.72,0,0,0,55.2-7.46h49.89l17-122.6q13.35-24.69,27.51-39.86T1548.55,319q10.11,0,15.38,4.65c3.49,3.1,5.26,8.57,5.26,16.39a67.77,67.77,0,0,1-1.22,11.33l-11.89,82.12c-2.68,19.49-1.79,63.14,47.08,68.4a108.49,108.49,0,0,0,73.6-18.65q17.73,19.44,48.6,19.46,37.23,0,63.53-36.42c4.31,21,17.89,31.73,44.51,35.61,35.33,5,68.46-14.29,78.15-20.58q17.29,15.3,45.26,15.32a65.45,65.45,0,0,0,31.57-8.1,93.3,93.3,0,0,0,26.7-21.85l-3.24,23.47q-4.86,32-19.62,43.09t-37.83,11.13q-27.93,0-57.86-17l-18.21,36a161.93,161.93,0,0,0,37.83,16.18,142.3,142.3,0,0,0,39.86,6.07q46.13,0,72.22-23.46,22.13-19.9,31-61.3c2.12.41,4.34.75,6.68,1,41.88,4.5,73.32-13.13,81.47-18.27q16.71,13,42.48,13a65.38,65.38,0,0,0,31.56-8.1,93.21,93.21,0,0,0,26.71-21.85l-3.24,23.47q-4.86,32-19.62,43.09t-37.83,11.13q-27.93,0-57.87-17l-18.2,36a161.93,161.93,0,0,0,37.83,16.18,142.28,142.28,0,0,0,39.85,6.07q46.14,0,72.23-23.46,22.11-19.89,31-61.26c2.06.4,4.2.72,6.46,1a111.43,111.43,0,0,0,70.88-16.36,34.39,34.39,0,0,0,4.61,5.64q11.73,11.52,33.17,11.53A83.74,83.74,0,0,0,2443,495c5.62-2.28,30-16.87,41.13-23.63a73.59,73.59,0,0,0,6.36,7.64q22.65,23.67,65.54,23.68,42.49,0,81.33-27.52l-19.82-32.37Q2603,453.31,2589.64,458a84,84,0,0,1-27.92,4.66q-40,0-41.27-44.91Q2583.57,411.63,2621,393T2658.43,333.13Zm-870.75,96.3q-11.75,16.59-23.06,25.29t-24.28,8.7q-30.36,0-30.35-44.51a180.32,180.32,0,0,1,6.68-48.36q6.67-24.06,21.24-40.05t36.82-16a84.66,84.66,0,0,1,15.38,1.21,71.06,71.06,0,0,1,14.16,4.45ZM2020.34,423q-11.74,16.2-23.67,25.29t-25.7,9.11q-14.16,0-22.25-10.32t-8.09-33a160.55,160.55,0,0,1,6.88-46.93q6.87-22.67,21.85-37.64t37.63-15a82,82,0,0,1,15,1.21,70.86,70.86,0,0,1,14.16,4.45Zm233.06,0q-11.74,16.2-23.67,25.29t-25.7,9.11q-14.16,0-22.25-10.32t-8.09-33a160.55,160.55,0,0,1,6.88-46.93q6.87-22.67,21.85-37.64t37.63-15a82,82,0,0,1,15,1.21,70.86,70.86,0,0,1,14.16,4.45Zm332-55q-20.43,12.13-62.92,16.18,4.86-30.35,19-50.58t39.25-20.23q13.35,0,19.21,6.68a22.88,22.88,0,0,1,5.87,15.58Q2605.82,355.8,2585.39,367.93Z" />
        </g>
    </g>
</svg>